<?xml version="1.0" ?>
<!DOCTYPE svg  PUBLIC '-//W3C//DTD SVG 1.1//EN'  'http://www.w3.org/Graphics/SVG/1.1/DTD/svg11.dtd'>
<!-- Uploaded to: SVG Repo, www.svgrepo.com, Generator: SVG Repo Mixer Tools -->
<svg width="800px" height="800px" viewBox="0 0 32 32" enable-background="new 0 0 32 32" id="Layer_1" version="1.1" xml:space="preserve" xmlns="http://www.w3.org/2000/svg" xmlns:xlink="http://www.w3.org/1999/xlink">
<g id="time_management_1_">
<g>
<g>
<g>
<circle cx="19.252" cy="10.146" fill="#263238" r="0.499"/>
<path d="M12.286,25.663c0.104-0.256,0.397-0.377,0.653-0.271c0.253,0.103,0.376,0.397,0.27,0.653      c-0.105,0.254-0.398,0.376-0.652,0.269C12.303,26.209,12.18,25.916,12.286,25.663z" fill="#263238"/>
</g>
<g>
<circle cx="22.01" cy="11.989" fill="#263238" r="0.499"/>
<circle cx="9.99" cy="24.011" fill="#263238" r="0.499"/>
</g>
<g>
<circle cx="23.853" cy="14.747" fill="#263238" r="0.499"/>
<circle cx="8.147" cy="21.253" fill="#263238" r="0.499"/>
</g>
<g>
<circle cx="24.5" cy="18" fill="#263238" r="0.5"/>
<circle cx="7.5" cy="18" fill="#263238" r="0.5"/>
</g>
<g>
<circle cx="23.854" cy="21.252" fill="#263238" r="0.5"/>
<circle cx="8.146" cy="14.748" fill="#263238" r="0.5"/>
</g>
<g>
<circle cx="22.011" cy="24.01" fill="#263238" r="0.5"/>
<circle cx="9.989" cy="11.99" fill="#263238" r="0.5"/>
</g>
<g>
<circle cx="19.253" cy="25.853" fill="#263238" r="0.5"/>
<circle cx="12.747" cy="10.147" fill="#263238" r="0.5"/>
</g>
<g>
<circle cx="16" cy="26.5" fill="#263238" r="0.5"/>
<circle cx="16" cy="9.5" fill="#263238" r="0.5"/>
</g>
</g>
<g>
<path d="M16,17.5c-0.276,0-0.5-0.224-0.5-0.5v-6c0-0.276,0.224-0.5,0.5-0.5s0.5,0.224,0.5,0.5v6     C16.5,17.276,16.276,17.5,16,17.5z" fill="#263238"/>
</g>
<g>
<path d="M16,19.5c-0.827,0-1.5-0.673-1.5-1.5s0.673-1.5,1.5-1.5s1.5,0.673,1.5,1.5S16.827,19.5,16,19.5z M16,17.5     c-0.276,0-0.5,0.225-0.5,0.5s0.224,0.5,0.5,0.5s0.5-0.225,0.5-0.5S16.276,17.5,16,17.5z" fill="#263238"/>
</g>
<g>
<g>
<g>
<path d="M23.347,8.387c-0.102,0-0.205-0.031-0.293-0.096c-0.223-0.162-0.273-0.475-0.11-0.698l1.175-1.617       c0.161-0.224,0.474-0.273,0.698-0.11c0.223,0.162,0.273,0.475,0.11,0.698l-1.175,1.617C23.654,8.315,23.502,8.387,23.347,8.387       z" fill="#263238"/>
</g>
</g>
<g>
<g>
<path d="M8.653,8.388c-0.155,0-0.307-0.071-0.405-0.206L7.073,6.563C6.911,6.34,6.96,6.027,7.184,5.865       c0.225-0.162,0.537-0.113,0.699,0.11l1.175,1.618C9.219,7.817,9.169,8.13,8.946,8.292C8.857,8.356,8.754,8.388,8.653,8.388z" fill="#263238"/>
</g>
</g>
</g>
<g>
<g>
<path d="M16.5,6C16.224,6,16,5.776,16,5.5v-2C16,3.224,16.224,3,16.5,3S17,3.224,17,3.5v2      C17,5.776,16.776,6,16.5,6z" fill="#263238"/>
</g>
</g>
<path d="M16,31C8.832,31,3,25.168,3,18c0-3.343,1.267-6.52,3.566-8.945c0.19-0.2,0.506-0.207,0.707-0.02    c0.201,0.19,0.209,0.507,0.019,0.707C5.169,11.982,4,14.915,4,18c0,6.617,5.383,12,12,12s12-5.383,12-12    c0-3.821-1.76-7.327-4.828-9.621c-0.221-0.165-0.267-0.479-0.101-0.7c0.166-0.221,0.479-0.267,0.7-0.101    C27.094,10.063,29,13.86,29,18C29,25.168,23.168,31,16,31z" fill="#263238"/>
<path d="M8.652,8.387c-0.155,0-0.307-0.071-0.405-0.206c-0.163-0.223-0.113-0.536,0.11-0.698    C10.59,5.858,13.232,5,16,5c2.017,0,3.951,0.449,5.747,1.336c0.248,0.122,0.35,0.422,0.227,0.67    c-0.121,0.247-0.42,0.35-0.669,0.227C19.647,6.415,17.862,6,16,6c-2.555,0-4.994,0.792-7.055,2.291    C8.857,8.355,8.754,8.387,8.652,8.387z" fill="#263238"/>
<path d="M16,29C9.935,29,5,24.065,5,18S9.935,7,16,7s11,4.935,11,11S22.065,29,16,29z M16,8    C10.486,8,6,12.486,6,18s4.486,10,10,10s10-4.486,10-10S21.514,8,16,8z" fill="#263238"/>
<path d="M17.5,4h-1C16.224,4,16,3.776,16,3.5S16.224,3,16.5,3H17V2h-2v0.5C15,2.776,14.776,3,14.5,3    S14,2.776,14,2.5v-1C14,1.224,14.224,1,14.5,1h3C17.776,1,18,1.224,18,1.5v2C18,3.776,17.776,4,17.5,4z" fill="#263238"/>
</g>
</g>
</svg>